<svg width="247" height="38" viewBox="0 0 247 38" fill="none" xmlns="http://www.w3.org/2000/svg">
<rect x="9.41016" width="8.18225" height="6.79417" rx="1" fill="#205E2A"/>
<rect x="9.41016" y="7.64343" width="8.18225" height="6.79417" rx="1" fill="#205E2A"/>
<rect x="9.41016" y="15.2869" width="8.18225" height="6.79417" rx="1" fill="#205E2A"/>
<rect x="9.41016" y="22.9303" width="8.18225" height="6.79417" rx="1" fill="#205E2A"/>
<rect y="23" width="8.18225" height="6.79417" rx="1" fill="#205E2A"/>
<rect x="0.205078" y="15.2869" width="8.18225" height="6.79417" rx="1" fill="#205E2A"/>
<rect x="25.7754" width="8.18225" height="6.79417" rx="1" fill="#205E2A"/>
<rect x="25.7754" y="7.64343" width="8.18225" height="6.79417" rx="1" fill="#205E2A"/>
<rect x="25.7754" y="15.2869" width="8.18225" height="6.79417" rx="1" fill="#205E2A"/>
<rect x="25.7754" y="22.9303" width="8.18225" height="6.79417" rx="1" fill="#205E2A"/>
<rect x="34.9805" y="15.2869" width="8.18225" height="6.79417" rx="1" fill="#205E2A"/>
<rect x="9.41016" y="30.5737" width="8.18225" height="6.79417" rx="1" fill="#205E2A"/>
<rect x="51.3447" width="8.18225" height="6.79417" rx="1" fill="#205E2A"/>
<rect x="51.3447" y="7.64343" width="8.18225" height="6.79417" rx="1" fill="#205E2A"/>
<rect x="51.3447" y="15.2869" width="8.18225" height="6.79417" rx="1" fill="#205E2A"/>
<rect x="51.3447" y="22.9303" width="8.18225" height="6.79417" rx="1" fill="#205E2A"/>
<rect x="69.7539" width="8.18225" height="6.79417" rx="1" fill="#205E2A"/>
<rect x="69.7539" y="7.64343" width="8.18225" height="6.79417" rx="1" fill="#205E2A"/>
<rect x="69.7539" y="15.2869" width="8.18225" height="6.79417" rx="1" fill="#205E2A"/>
<rect x="69.7539" y="22.9303" width="8.18225" height="6.79417" rx="1" fill="#205E2A"/>
<path d="M60.5498 31.5737C60.5498 31.0214 60.9975 30.5737 61.5498 30.5737H67.7321C68.2843 30.5737 68.7321 31.0214 68.7321 31.5737V36.3679C68.7321 36.9202 68.2843 37.3679 67.7321 37.3679H61.5498C60.9975 37.3679 60.5498 36.9202 60.5498 36.3679V31.5737Z" fill="#205E2A"/>
<rect x="131.121" y="7.64343" width="8.18225" height="6.79417" rx="1" fill="#205E2A"/>
<rect x="131.121" y="15.2869" width="8.18225" height="6.79417" rx="1" fill="#205E2A"/>
<rect x="131.121" y="22.9303" width="8.18225" height="6.79417" rx="1" fill="#205E2A"/>
<rect x="140.326" width="8.18225" height="6.79417" rx="1" fill="#205E2A"/>
<rect x="149.531" y="7.64343" width="8.18225" height="6.79417" rx="1" fill="#205E2A"/>
<rect x="149.531" y="15.2869" width="8.18225" height="6.79417" rx="1" fill="#205E2A"/>
<rect x="149.531" y="22.9303" width="8.18225" height="6.79417" rx="1" fill="#205E2A"/>
<path d="M140.326 31.5737C140.326 31.0214 140.774 30.5737 141.326 30.5737H147.508C148.061 30.5737 148.508 31.0214 148.508 31.5737V36.3679C148.508 36.9202 148.061 37.3679 147.508 37.3679H141.326C140.774 37.3679 140.326 36.9202 140.326 36.3679V31.5737Z" fill="#205E2A"/>
<rect x="0.205078" y="30.5737" width="8.18225" height="6.79417" rx="1" fill="#205E2A"/>
<rect x="25.7754" y="30.5737" width="8.18225" height="6.79417" rx="1" fill="#205E2A"/>
<rect x="34.9805" y="30.5737" width="8.18225" height="6.79417" rx="1" fill="#205E2A"/>
<rect x="34.9805" width="8.18225" height="6.79417" rx="1" fill="#205E2A"/>
<rect x="86.1182" width="8.18225" height="6.79417" rx="1" fill="#205E2A"/>
<rect x="86.1182" y="7.64343" width="8.18225" height="6.79417" rx="1" fill="#205E2A"/>
<rect x="86.1182" y="15.2869" width="8.18225" height="6.79417" rx="1" fill="#205E2A"/>
<rect x="86.1182" y="22.9303" width="8.18225" height="6.79417" rx="1" fill="#205E2A"/>
<rect x="95.3252" y="15.2869" width="8.18225" height="6.79417" rx="1" fill="#205E2A"/>
<rect x="86.1182" y="30.5737" width="8.18225" height="6.79417" rx="1" fill="#205E2A"/>
<rect x="95.3252" y="30.5737" width="8.18225" height="6.79417" rx="1" fill="#205E2A"/>
<rect x="95.3252" width="8.18225" height="6.79417" rx="1" fill="#205E2A"/>
<rect x="196.58" width="8.18225" height="6.79417" rx="1" fill="#205E2A"/>
<rect x="196.58" y="7.64343" width="8.18225" height="6.79417" rx="1" fill="#205E2A"/>
<rect x="196.58" y="15.2869" width="8.18225" height="6.79417" rx="1" fill="#205E2A"/>
<rect x="196.58" y="22.9303" width="8.18225" height="6.79417" rx="1" fill="#205E2A"/>
<rect x="205.784" y="15.2869" width="8.18225" height="6.79417" rx="1" fill="#205E2A"/>
<rect x="196.58" y="30.5737" width="8.18225" height="6.79417" rx="1" fill="#205E2A"/>
<rect x="205.784" y="30.5737" width="8.18225" height="6.79417" rx="1" fill="#205E2A"/>
<rect x="205.784" width="8.18225" height="6.79417" rx="1" fill="#205E2A"/>
<rect x="220.104" width="8.18225" height="6.79417" rx="1" fill="#205E2A"/>
<rect x="220.104" y="7.64343" width="8.18225" height="6.79417" rx="1" fill="#205E2A"/>
<rect x="220.104" y="15.2869" width="8.18225" height="6.79417" rx="1" fill="#205E2A"/>
<rect x="220.104" y="22.9303" width="8.18225" height="6.79417" rx="1" fill="#205E2A"/>
<rect x="229.308" y="15.2869" width="8.18225" height="6.79417" rx="1" fill="#205E2A"/>
<rect x="220.104" y="30.5737" width="8.18225" height="6.79417" rx="1" fill="#205E2A"/>
<rect x="238.514" y="7.64343" width="8.18225" height="6.79417" rx="1" fill="#205E2A"/>
<rect x="238.514" y="22.9303" width="8.18225" height="6.79417" rx="1" fill="#205E2A"/>
<rect x="238.514" y="30.5737" width="8.18225" height="6.79417" rx="1" fill="#205E2A"/>
<rect x="229.308" width="8.18225" height="6.79417" rx="1" fill="#205E2A"/>
<rect x="163.85" width="8.18225" height="6.79417" rx="1" fill="#205E2A"/>
<rect x="163.85" y="7.64343" width="8.18225" height="6.79417" rx="1" fill="#205E2A"/>
<rect x="163.85" y="15.2869" width="8.18225" height="6.79417" rx="1" fill="#205E2A"/>
<rect x="163.85" y="22.9303" width="8.18225" height="6.79417" rx="1" fill="#205E2A"/>
<rect x="173.055" y="15.2869" width="8.18225" height="6.79417" rx="1" fill="#205E2A"/>
<rect x="163.85" y="30.5737" width="8.18225" height="6.79417" rx="1" fill="#205E2A"/>
<rect x="182.26" y="7.64343" width="8.18225" height="6.79417" rx="1" fill="#205E2A"/>
<rect x="173.055" width="8.18225" height="6.79417" rx="1" fill="#205E2A"/>
<rect x="109.644" width="8.18225" height="6.79417" rx="1" fill="#205E2A"/>
<rect x="109.644" y="7.64343" width="8.18225" height="6.79417" rx="1" fill="#205E2A"/>
<rect x="109.644" y="15.2869" width="8.18225" height="6.79417" rx="1" fill="#205E2A"/>
<rect x="109.644" y="22.9303" width="8.18225" height="6.79417" rx="1" fill="#205E2A"/>
<rect x="109.644" y="30.5737" width="8.18225" height="6.79417" rx="1" fill="#205E2A"/>
<rect x="118.849" y="30.5737" width="8.18225" height="6.79417" rx="1" fill="#205E2A"/>
</svg>
